:SAMPLES-PER-SECOND 30
:FULLY-SPECIFIED
:DEGREES
214
root  -3.67524 41.0145 0.66775 2.06934 -86.8702 0.509277
RightUpLeg  1.98558 -1.3587 -1.4936
RightLeg  -4.68977 -21.6975 2.17227
RightFoot  1.48505 -0.260447 2.40598
RightToes  -3.13588e-008 1.75238e-005 3.56266e-009
Spine  -0.72661 0.353423 -4.10649
Spine1  -3.40397 -0.18843 4.9061
HEad  -2.09361 2.42813 3.63777
LeftShoulder1  1.05181 -0.349754 -20.869
LeftArm  -26.4283 -21.9425 -34.7756
LeftForeArm  106.02 -79.813 -102.795
LeftHand  -0.822504 -4.0327 10.3936
RightShoulder  2.08699 3.41523 24.0581
RightArm  -15.4966 -0.349336 46.2822
RightForeArm  21.3707 48.1035 10.9262
RightHand  -0.42548 7.21681 -4.26626
LeftUpLeg  1.49349 0.61587 2.60312
LeftLeg  -4.5605 13.0616 -1.08444
LeftFoot  1.43109 0.372928 -3.41019
LeftToes  4.76812e-008 1.47286e-008 1.3089e-009
215
root  -3.652 41.0181 0.773254 6.69162 -89.8548 -4.33719
RightUpLeg  1.95594 -1.01923 -1.32873
RightLeg  -4.94004 -19.207 1.93567
RightFoot  1.96912 -0.269556 2.42436
RightToes  -3.13588e-008 1.75238e-005 3.56266e-009
Spine  -0.762965 -0.353681 -4.7864
Spine1  -3.21525 -1.05388 5.98787
HEad  -1.39717 3.14994 3.5685
LeftShoulder1  1.16052 -0.688732 -21.2854
LeftArm  -25.1255 -23.6404 -35.1611
LeftForeArm  99.9127 -80.0557 -95.718
LeftHand  -0.761342 -4.01543 9.6613
RightShoulder  2.05972 3.31342 24.1073
RightArm  -15.0182 0.344514 46.146
RightForeArm  21.6481 48.6291 11.1282
RightHand  -0.449018 7.37264 -4.43557
LeftUpLeg  2.09792 0.907552 2.7352
LeftLeg  -4.52111 15.5748 -1.31584
LeftFoot  1.16621 0.356105 -3.3145
LeftToes  4.76812e-008 1.47286e-008 1.3089e-009
216
root  -3.61412 41.0187 0.881701 170.905 -87.3755 -168.668
RightUpLeg  1.78999 -0.778601 -1.23731
RightLeg  -5.12127 -16.8485 1.74364
RightFoot  2.43609 -0.288843 2.52695
RightToes  -3.13588e-008 1.75238e-005 3.56266e-009
Spine  -0.659604 -1.30658 -5.61178
Spine1  -3.20788 -2.15634 7.07463
HEad  -1.0086 4.18304 4.00788
LeftShoulder1  1.30319 -1.13696 -21.7108
LeftArm  -23.22 -25.8976 -35.5552
LeftForeArm  94.7022 -80.0745 -91.0754
LeftHand  -0.765775 -3.70885 10.0187
RightShoulder  1.97673 3.1354 23.65
RightArm  -15.0148 0.69441 46.1739
RightForeArm  21.4384 49.156 11.3707
RightHand  -0.426173 7.20288 -4.27804
LeftUpLeg  2.64518 1.19313 2.83376
LeftLeg  -4.74792 17.8836 -1.66585
LeftFoot  1.01748 0.326541 -3.07307
LeftToes  4.76812e-008 1.47286e-008 1.3089e-009
217
root  -3.59232 41.0142 0.971809 172.778 -85.4411 -170.705
RightUpLeg  1.90959 -0.581273 -1.08732
RightLeg  -5.53223 -15.2409 1.7269
RightFoot  2.82606 -0.323486 2.75756
RightToes  -3.13588e-008 1.75238e-005 3.56266e-009
Spine  -0.0931446 -2.70217 -6.85923
Spine1  -3.68575 -3.71886 8.43065
HEad  -0.0461296 5.3429 4.76495
LeftShoulder1  1.4826 -1.70859 -22.1107
LeftArm  -20.5199 -27.6636 -35.7064
LeftForeArm  92.4211 -80.0664 -88.9389
LeftHand  -0.74389 -3.41096 10.062
RightShoulder  1.99791 3.22311 23.5663
RightArm  -15.6781 1.15852 45.4963
RightForeArm  21.6523 48.4266 11.0399
RightHand  -0.491458 7.56884 -4.75736
LeftUpLeg  2.88197 1.51299 3.01612
LeftLeg  -4.39975 19.3593 -1.76157
LeftFoot  0.735182 0.292816 -2.81045
LeftToes  4.76812e-008 1.47286e-008 1.3089e-009
218
root  -3.55245 41.0111 1.04703 172.664 -84.4237 -170.706
RightUpLeg  1.92056 -0.466644 -1.00914
RightLeg  -5.68109 -14.5499 1.67295
RightFoot  3.06522 -0.352701 2.9552
RightToes  -3.13588e-008 1.75238e-005 3.56266e-009
Spine  0.750159 -4.40213 -8.7473
Spine1  -4.08195 -5.65798 10.307
HEad  0.789653 6.08385 5.61442
LeftShoulder1  1.50538 -1.81882 -21.9232
LeftArm  -16.9592 -29.5646 -37.3849
LeftForeArm  91.735 -80.0694 -88.1101
LeftHand  -0.686118 -2.41951 10.3631
RightShoulder  1.87248 2.89965 23.0901
RightArm  -16.2011 1.29626 44.8223
RightForeArm  20.943 47.5766 10.7426
RightHand  -0.580852 7.27154 -5.66662
LeftUpLeg  2.90744 1.77464 3.14926
LeftLeg  -4.03282 19.966 -1.85307
LeftFoot  0.513841 0.253367 -2.47094
LeftToes  4.76812e-008 1.47286e-008 1.3089e-009
219
root  -3.50733 41.0106 1.08651 172.018 -84.1089 -170.072
RightUpLeg  1.99979 -0.292806 -0.880615
RightLeg  -6.07471 -14.6115 1.69949
RightFoot  3.33819 -0.369264 3.04269
RightToes  -3.13588e-008 1.75238e-005 3.56266e-009
Spine  1.78465 -6.38841 -10.9568
Spine1  -4.58449 -7.92447 12.4437
HEad  0.692214 6.63491 5.67809
LeftShoulder1  1.39518 -1.5649 -21.1336
LeftArm  -13.3767 -30.2752 -39.7831
LeftForeArm  94.408 -80.1205 -89.7627
LeftHand  -0.885219 -3.7705 11.4797
RightShoulder  1.76015 2.5919 22.6944
RightArm  -17.1622 1.56257 44.2322
RightForeArm  21.5529 46.17 10.1404
RightHand  -0.486603 7.0696 -4.8804
LeftUpLeg  2.69545 1.91865 3.25623
LeftLeg  -3.62118 20.018 -1.79622
LeftFoot  0.40623 0.225608 -2.21833
LeftToes  4.76812e-008 1.47286e-008 1.3089e-009
220
root  -3.45734 41.0101 1.12831 172.306 -83.9399 -170.297
RightUpLeg  1.75602 -0.329043 -0.950712
RightLeg  -5.92992 -14.5555 1.70719
RightFoot  3.31093 -0.388025 3.19289
RightToes  -3.13588e-008 1.75238e-005 3.56266e-009
Spine  3.08415 -7.7495 -12.7084
Spine1  -5.52599 -9.50338 14.2023
HEad  0.859715 6.36257 5.23754
LeftShoulder1  1.51146 -1.96609 -21.2472
LeftArm  -10.6018 -30.507 -40.8918
LeftForeArm  100.214 -80.14 -94.5642
LeftHand  -0.929365 -4.4195 11.2545
RightShoulder  1.56196 2.05213 21.9002
RightArm  -18.2899 1.28576 43.5396
RightForeArm  21.2465 45.1759 9.78506
RightHand  -0.458866 7.11408 -4.61014
LeftUpLeg  2.47873 1.90636 3.19761
LeftLeg  -3.44516 20.1702 -1.76123
LeftFoot  0.397817 0.216591 -2.1266
LeftToes  4.76812e-008 1.47286e-008 1.3089e-009
221
root  -3.4095 41.008 1.17616 173.926 -83.4756 -171.908
RightUpLeg  1.35908 -0.431863 -1.1495
RightLeg  -5.4189 -13.9811 1.5346
RightFoot  3.19661 -0.405779 3.35086
RightToes  -3.13588e-008 1.75238e-005 3.56266e-009
Spine  3.40666 -8.64555 -13.9551
Spine1  -5.09339 -10.648 15.3802
HEad  0.501393 6.21145 4.41684
LeftShoulder1  1.54887 -2.01205 -21.7181
LeftArm  -9.05545 -31.1124 -41.6898
LeftForeArm  104.895 -80.115 -98.2884
LeftHand  -0.969862 -4.98972 11.1259
RightShoulder  1.43934 1.7121 21.3529
RightArm  -18.5518 0.460076 42.5663
RightForeArm  20.5338 45.8855 10.1029
RightHand  -0.484935 6.7742 -4.96964
LeftUpLeg  2.55794 1.80777 2.99993
LeftLeg  -3.70225 20.7624 -1.90954
LeftFoot  0.462306 0.211976 -2.06604
LeftToes  4.76812e-008 1.47286e-008 1.3089e-009
222
root  -3.37722 41.0043 1.22475 175.234 -82.4428 -173.173
RightUpLeg  0.970764 -0.337661 -1.20229
RightLeg  -5.10601 -13.0324 1.30895
RightFoot  3.24622 -0.415221 3.41606
RightToes  -3.13588e-008 1.75238e-005 3.56266e-009
Spine  3.17417 -9.10519 -13.7195
Spine1  -4.25203 -11.1379 14.7364
HEad  -0.325541 5.35617 3.95219
LeftShoulder1  1.62807 -2.24415 -21.9819
LeftArm  -9.3897 -31.1479 -41.7032
LeftForeArm  109.02 -79.9786 -102.503
LeftHand  -0.867243 -5.17422 9.82049
RightShoulder  1.34511 1.35531 21.4483
RightArm  -18.8611 0.37229 42.0401
RightForeArm  21.1631 46.0281 10.1131
RightHand  -0.47357 7.37989 -4.65492
LeftUpLeg  2.631 1.80236 2.88328
LeftLeg  -3.8083 21.8115 -2.03228
LeftFoot  0.397539 0.217487 -2.14862
LeftToes  4.76812e-008 1.47286e-008 1.3089e-009
